nColumns=28
nRows=73
DataType=double
version=3
OpenSimVersion=4.1
endheader
time	ground_force_1_vx	ground_force_1_vy	ground_force_1_vz	ground_force_1_px	ground_force_1_py	ground_force_1_pz	ground_force_1_mx	ground_force_1_my	ground_force_1_mz	ground_force_2_vx	ground_force_2_vy	ground_force_2_vz	ground_force_2_px	ground_force_2_py	ground_force_2_pz	ground_force_2_mx	ground_force_2_my	ground_force_2_mz	ground_force_3_vx	ground_force_3_vy	ground_force_3_vz	ground_force_3_px	ground_force_3_py	ground_force_3_pz	ground_force_3_mx	ground_force_3_my	ground_force_3_mz
1.3	-156.961	267.647	-17.0009	-0.133835	0.006	-0.37135	0	0.624514	0	-41.5286	70.5512	7.90806	-0.066084	0.006	-0.738451	0	-0.640687	0	0	0	0	0	0	0	0	0	0
1.31	-399.588	697.247	-63.6784	-0.13959	0.006	-0.373113	0	1.73338	0	-244.967	411.055	38.5558	-0.084792	0.006	-0.747591	0	-0.376515	0	0	0	0	0	0	0	0	0	0
1.32	-264.405	627.389	-73.1984	-0.147599	0.006	-0.37303	0	1.99951	0	-307.735	563.733	67.3818	-0.088785	0.006	-0.745231	0	-0.587677	0	0	0	0	0	0	0	0	0	0
1.33	-170.154	538.064	-70.2556	-0.162531	0.006	-0.374786	0	0.65486	0	-183.955	601.55	45.3021	-0.121291	0.006	-0.732937	0	1.63289	0	0	0	0	0	0	0	0	0	0
1.34	-149.299	698.917	-62.1006	-0.207287	0.006	-0.384638	0	-1.68508	0	-99.5775	960.643	-0.480512	-0.180164	0.006	-0.717304	0	6.00795	0	0	0	0	0	0	0	0	0	0
1.35	-31.3367	1047.69	-59.7559	-0.25513	0.006	-0.394126	0	-3.30378	0	-42.914	1180.57	-12.191	-0.201266	0.006	-0.713072	0	8.24993	0	0	0	0	0	0	0	0	0	0
1.36	-32.1862	1047.89	-79.2235	-0.261007	0.006	-0.395038	0	-3.82662	0	-161.016	852.593	32.8872	-0.185482	0.006	-0.715858	0	7.47715	0	0	0	0	0	0	0	0	0	0
1.37	-152.534	795.665	-77.664	-0.237246	0.006	-0.392045	0	-2.82545	0	-254.538	559.113	61.7226	-0.15202	0.006	-0.722246	0	5.26393	0	0	0	0	0	0	0	0	0	0
1.38	-168.37	615.102	-68.3612	-0.213553	0.006	-0.38859	0	-2.90218	0	-243.636	456.417	61.6008	-0.135134	0.006	-0.725292	0	4.87384	0	0	0	0	0	0	0	0	0	0
1.39	-130.886	545.335	-59.2347	-0.204163	0.006	-0.387151	0	-3.83117	0	-188.001	433.846	48.7452	-0.136089	0.006	-0.724151	0	5.64544	0	0	0	0	0	0	0	0	0	0
1.4	-111.181	503.062	-48.6918	-0.198128	0.006	-0.387061	0	-4.72343	0	-155.31	434.739	48.8216	-0.139057	0.006	-0.723981	0	6.16953	0	0	0	0	0	0	0	0	0	0
1.41	-115.919	462.458	-46.9995	-0.189594	0.006	-0.386274	0	-4.96968	0	-149.864	457.089	49.9229	-0.142783	0.006	-0.72325	0	6.59453	0	0	0	0	0	0	0	0	0	0
1.42	-121.363	443.926	-52.832	-0.183396	0.006	-0.385385	0	-4.95893	0	-135.182	491.79	40.7115	-0.149873	0.006	-0.720627	0	7.21173	0	0	0	0	0	0	0	0	0	0
1.43	-109.551	453.151	-56.7068	-0.184394	0.006	-0.385779	0	-5.49724	0	-103.48	523.153	35.319	-0.15859	0.006	-0.718841	0	7.53355	0	0	0	0	0	0	0	0	0	0
1.44	-83.5193	479.59	-55.0927	-0.191297	0.006	-0.387453	0	-6.27543	0	-74.9129	526.151	38.4789	-0.163765	0.006	-0.719437	0	7.30001	0	0	0	0	0	0	0	0	0	0
1.45	-55.1292	500.395	-53.1512	-0.198637	0.006	-0.388862	0	-6.50964	0	-69.0292	487.215	44.7327	-0.161015	0.006	-0.721886	0	6.65686	0	0	0	0	0	0	0	0	0	0
1.46	-34.3186	511.079	-53.9811	-0.203219	0.006	-0.389248	0	-6.31954	0	-79.9939	438.62	47.2792	-0.152822	0.006	-0.724269	0	6.37032	0	0	0	0	0	0	0	0	0	0
1.47	-25.0154	516.873	-56.6171	-0.204346	0.006	-0.388474	0	-6.02484	0	-92.2604	413.006	43.9632	-0.146203	0.006	-0.724898	0	6.88347	0	0	0	0	0	0	0	0	0	0
1.48	-26.0338	506.802	-59.9178	-0.20153	0.006	-0.387017	0	-5.60992	0	-97.1881	409.761	38.9368	-0.143879	0.006	-0.724142	0	7.69884	0	0	0	0	0	0	0	0	0	0
1.49	-32.8942	480.173	-60.8207	-0.19518	0.006	-0.385858	0	-5.40808	0	-92.6301	420.161	34.5839	-0.145258	0.006	-0.722862	0	8.43194	0	0	0	0	0	0	0	0	0	0
1.5	-42.8419	450.513	-57.3433	-0.187188	0.006	-0.385666	0	-5.63052	0	-80.0002	444.23	30.94	-0.149777	0.006	-0.721366	0	8.90384	0	0	0	0	0	0	0	0	0	0
1.51	-52.6673	428.102	-52.8219	-0.180491	0.006	-0.386452	0	-5.9535	0	-63.4957	478.512	31.5104	-0.155354	0.006	-0.720618	0	8.82166	0	0	0	0	0	0	0	0	0	0
1.52	-58.0745	416.865	-47.103	-0.176949	0.006	-0.388165	0	-6.54965	0	-47.9555	511.577	36.2026	-0.159829	0.006	-0.721038	0	8.21659	0	0	0	0	0	0	0	0	0	0
1.53	-58.0856	415.534	-39.4667	-0.176598	0.006	-0.390599	0	-7.51617	0	-36.5323	533.646	41.2621	-0.162395	0.006	-0.722237	0	7.38694	0	0	0	0	0	0	0	0	0	0
1.54	-52.9629	422.676	-32.1638	-0.178969	0.006	-0.393376	0	-8.50954	0	-31.7153	539.982	45.2222	-0.162665	0.006	-0.723769	0	6.5992	0	0	0	0	0	0	0	0	0	0
1.55	-43.2119	437.484	-27.4777	-0.18322	0.006	-0.395969	0	-9.16679	0	-32.0885	537.136	46.6591	-0.161227	0.006	-0.725114	0	6.13949	0	0	0	0	0	0	0	0	0	0
1.56	-29.7936	457.499	-27.5699	-0.187964	0.006	-0.397687	0	-9.14753	0	-32.8587	537.06	46.0454	-0.159647	0.006	-0.726041	0	6.0353	0	0	0	0	0	0	0	0	0	0
1.57	-15.5643	477.86	-33.2228	-0.191391	0.006	-0.397977	0	-8.43828	0	-32.164	543.731	46.7251	-0.157826	0.006	-0.726863	0	5.96576	0	0	0	0	0	0	0	0	0	0
1.58	-8.61269	491.048	-41.5739	-0.191048	0.006	-0.397219	0	-7.4623	0	-29.2009	557.272	49.3351	-0.15567	0.006	-0.727935	0	5.6897	0	0	0	0	0	0	0	0	0	0
1.59	-11.7749	492.747	-45.9503	-0.18706	0.006	-0.396566	0	-6.92404	0	-25.7661	572.758	53.7112	-0.153026	0.006	-0.729252	0	5.14357	0	0	0	0	0	0	0	0	0	0
1.6	-17.6355	489.452	-43.847	-0.181882	0.006	-0.396538	0	-7.11093	0	-23.2864	582.617	59.0304	-0.149871	0.006	-0.730588	0	4.44457	0	0	0	0	0	0	0	0	0	0
1.61	-22.0838	487.75	-40.682	-0.177063	0.006	-0.396703	0	-7.38693	0	-21.4609	588.306	63.8419	-0.146463	0.006	-0.731646	0	3.72242	0	0	0	0	0	0	0	0	0	0
1.62	-24.9142	487.777	-40.825	-0.172855	0.006	-0.396387	0	-7.16367	0	-21.0191	592.554	68.1133	-0.142922	0.006	-0.732325	0	3.07803	0	0	0	0	0	0	0	0	0	0
1.63	-25.349	488.128	-43.8592	-0.169339	0.006	-0.395667	0	-6.54874	0	-22.3651	593.779	72.2303	-0.139252	0.006	-0.732778	0	2.53112	0	0	0	0	0	0	0	0	0	0
1.64	-23.7056	489.4	-47.5274	-0.166918	0.006	-0.394997	0	-5.91531	0	-23.5664	592.683	75.7533	-0.135274	0.006	-0.73321	0	2.09125	0	0	0	0	0	0	0	0	0	0
1.65	-20.4936	492.211	-51.0696	-0.165495	0.006	-0.394565	0	-5.38862	0	-23.9549	591.389	78.4518	-0.131264	0.006	-0.733684	0	1.74803	0	0	0	0	0	0	0	0	0	0
1.66	-15.5294	495.544	-55.0449	-0.164975	0.006	-0.394285	0	-4.85812	0	-23.3563	590.428	80.5416	-0.127658	0.006	-0.734265	0	1.43071	0	0	0	0	0	0	0	0	0	0
1.67	-8.33885	498.857	-60.9943	-0.165038	0.006	-0.393887	0	-4.19691	0	-22.1491	589.071	82.8182	-0.12445	0.006	-0.735025	0	1.02864	0	0	0	0	0	0	0	0	0	0
1.68	-0.81529	501.926	-69.4699	-0.165344	0.006	-0.393273	0	-3.42664	0	-21.3316	587.344	84.9506	-0.121537	0.006	-0.735881	0	0.660449	0	0	0	0	0	0	0	0	0	0
1.69	4.96672	502.937	-78.1369	-0.16557	0.006	-0.392809	0	-2.74539	0	-21.3391	584.941	85.8535	-0.118927	0.006	-0.736678	0	0.415613	0	0	0	0	0	0	0	0	0	0
1.7	9.0543	502.015	-84.1505	-0.165687	0.006	-0.39277	0	-2.35577	0	-21.4336	581.163	85.7394	-0.116584	0.006	-0.737487	0	0.268039	0	0	0	0	0	0	0	0	0	0
1.71	12.0732	501.924	-86.7646	-0.165367	0.006	-0.392873	0	-2.28583	0	-20.9164	575.689	85.7278	-0.114331	0.006	-0.738315	0	0.099748	0	0	0	0	0	0	0	0	0	0
1.72	13.3339	502.366	-87.2315	-0.164178	0.006	-0.392791	0	-2.28194	0	-20.2127	569.95	86.8607	-0.111819	0.006	-0.739235	0	-0.210373	0	0	0	0	0	0	0	0	0	0
1.73	12.8786	499.385	-87.6774	-0.162153	0.006	-0.392491	0	-2.08087	0	-20.5141	564.246	88.4109	-0.108858	0.006	-0.739919	0	-0.596609	0	0	0	0	0	0	0	0	0	0
1.74	12.0354	491.362	-88.2153	-0.160023	0.006	-0.392094	0	-1.66639	0	-21.8522	558.775	88.4936	-0.10578	0.006	-0.740261	0	-0.793506	0	0	0	0	0	0	0	0	0	0
1.75	11.0852	479.666	-88.158	-0.157972	0.006	-0.391799	0	-1.17906	0	-22.6315	553.934	86.9348	-0.103309	0.006	-0.74026	0	-0.798165	0	0	0	0	0	0	0	0	0	0
1.76	10.3279	465.85	-87.1833	-0.156019	0.006	-0.391604	0	-0.735354	0	-22.6955	548.959	84.8185	-0.101382	0.006	-0.740224	0	-0.802425	0	0	0	0	0	0	0	0	0	0
1.77	9.25652	451.176	-85.3515	-0.15415	0.006	-0.391525	0	-0.369572	0	-22.2374	542.799	83.3663	-0.099559	0.006	-0.740374	0	-0.911484	0	0	0	0	0	0	0	0	0	0
1.78	7.25631	435.648	-82.6811	-0.152118	0.006	-0.39152	0	-0.065383	0	-21.6916	535.118	83.0916	-0.097693	0.006	-0.740656	0	-1.14005	0	0	0	0	0	0	0	0	0	0
1.79	4.28954	419.836	-79.3937	-0.150164	0.006	-0.39177	0	0.127917	0	-21.6611	526.594	83.6724	-0.095716	0.006	-0.740957	0	-1.41457	0	0	0	0	0	0	0	0	0	0
1.8	0.32912	403.908	-74.9391	-0.148191	0.006	-0.392238	0	0.16225	0	-22.0405	518.163	84.7225	-0.093654	0.006	-0.741254	0	-1.66345	0	0	0	0	0	0	0	0	0	0
1.81	-4.09196	386.206	-68.1742	-0.146172	0.006	-0.393044	0	0.011769	0	-22.797	509.814	85.7719	-0.091715	0.006	-0.741579	0	-1.85937	0	0	0	0	0	0	0	0	0	0
1.82	-8.59651	366.625	-60.0114	-0.144125	0.006	-0.394064	0	-0.243127	0	-24.2231	501.443	86.3612	-0.089774	0.006	-0.741658	0	-1.93907	0	0	0	0	0	0	0	0	0	0
1.83	-12.7501	347.051	-52.1427	-0.142109	0.006	-0.395025	0	-0.46671	0	-26.7138	493.815	85.7621	-0.087813	0.006	-0.741582	0	-1.81154	0	0	0	0	0	0	0	0	0	0
1.84	-16.8813	330.376	-46.0805	-0.140309	0.006	-0.395728	0	-0.567858	0	-29.9958	487.929	83.844	-0.085965	0.006	-0.741445	0	-1.53001	0	0	0	0	0	0	0	0	0	0
1.85	-20.58	320.242	-43.4952	-0.13871	0.006	-0.395878	0	-0.510014	0	-32.6866	484.257	81.2203	-0.084264	0.006	-0.741158	0	-1.22363	0	0	0	0	0	0	0	0	0	0
1.86	-23.313	317.93	-45.1028	-0.137129	0.006	-0.395433	0	-0.296992	0	-33.6787	483.225	79.1664	-0.082776	0.006	-0.740837	0	-1.02381	0	0	0	0	0	0	0	0	0	0
1.87	-25.1072	323.615	-50.3256	-0.136051	0.006	-0.394324	0	0.019689	0	-33.9497	484.936	78.0968	-0.081624	0.006	-0.74069	0	-0.96012	0	0	0	0	0	0	0	0	0	0
1.88	-25.591	336.154	-57.8534	-0.135371	0.006	-0.393088	0	0.397339	0	-34.7069	488.635	78.0552	-0.080692	0.006	-0.74069	0	-1.01577	0	0	0	0	0	0	0	0	0	0
1.89	-25.1289	353.296	-65.4664	-0.135177	0.006	-0.391854	0	0.737344	0	-35.5838	493.697	78.5565	-0.079788	0.006	-0.740753	0	-1.12517	0	0	0	0	0	0	0	0	0	0
1.9	-22.6728	374.871	-71.8368	-0.135497	0.006	-0.390987	0	0.879484	0	-35.7787	499.219	78.6405	-0.078969	0.006	-0.740807	0	-1.26131	0	0	0	0	0	0	0	0	0	0
1.91	-17.1165	399.732	-76.4612	-0.135989	0.006	-0.390454	0	0.743786	0	-35.1565	505.035	78.4923	-0.078183	0.006	-0.740676	0	-1.35634	0	0	0	0	0	0	0	0	0	0
1.92	-10.8749	425.588	-79.2877	-0.136559	0.006	-0.389988	0	0.3736	0	-34.0457	511.641	78.8328	-0.077631	0.006	-0.740717	0	-1.39796	0	0	0	0	0	0	0	0	0	0
1.93	-7.37738	450.044	-80.7128	-0.136896	0.006	-0.38971	0	-0.074674	0	-32.6787	517.78	79.3909	-0.077176	0.006	-0.740833	0	-1.39821	0	0	0	0	0	0	0	0	0	0
1.94	-7.02273	469.992	-81.7078	-0.13679	0.006	-0.389397	0	-0.450949	0	-32.3347	522.319	79.3842	-0.076744	0.006	-0.740901	0	-1.3858	0	0	0	0	0	0	0	0	0	0
1.95	-9.30654	483.071	-82.3586	-0.136295	0.006	-0.388958	0	-0.668301	0	-33.6185	524.833	78.4491	-0.076093	0.006	-0.740874	0	-1.33177	0	0	0	0	0	0	0	0	0	0
1.96	-14.0603	488.577	-82.2893	-0.13547	0.006	-0.388368	0	-0.684426	0	-36.0141	524.659	76.4457	-0.075179	0.006	-0.740869	0	-1.29412	0	0	0	0	0	0	0	0	0	0
1.97	-20.9313	486.284	-80.6846	-0.134246	0.006	-0.387761	0	-0.557801	0	-39.0943	521.595	73.4618	-0.074164	0.006	-0.740917	0	-1.26039	0	0	0	0	0	0	0	0	0	0
1.98	-28.6285	477.18	-76.7641	-0.132726	0.006	-0.387184	0	-0.422725	0	-42.3236	515.817	69.4333	-0.073343	0.006	-0.741165	0	-1.17601	0	0	0	0	0	0	0	0	0	0
1.99	-35.1821	461.727	-70.5601	-0.131026	0.006	-0.386621	0	-0.380679	0	-45.5119	506.424	64.7361	-0.072351	0.006	-0.741466	0	-1.07725	0	0	0	0	0	0	0	0	0	0
2	-39.6732	439.716	-62.6212	-0.129182	0.006	-0.385795	0	-0.409506	0	-48.3847	492.562	59.5912	-0.071171	0.006	-0.741999	0	-0.915432	0	0	0	0	0	0	0	0	0	0
2.01	-40.2774	408.449	-52.843	-0.127287	0.006	-0.384731	0	-0.42629	0	-49.6292	470.528	53.7399	-0.069931	0.006	-0.742915	0	-0.776795	0	0	0	0	0	0	0	0	0	0
2.02	-35.3341	362.157	-40.7871	-0.125136	0.006	-0.383157	0	-0.439367	0	-47.0582	433	46.4882	-0.068347	0.006	-0.744271	0	-0.650266	0	0	0	0	0	0	0	0	0	0
